<mxfile host="app.diagrams.net" agent="Mozilla/5.0 (Windows NT 10.0; Win64; x64) AppleWebKit/537.36 (KHTML, like Gecko) Chrome/118.0.0.0 Safari/537.36" version="24.8.6">
  <diagram name="Page-1" id="YldX-FH1EMEu_4PwGqca">
    <mxGraphModel dx="1434" dy="782" grid="1" gridSize="10" guides="1" tooltips="1" connect="1" arrows="1" fold="1" page="1" pageScale="1" pageWidth="827" pageHeight="1169" math="0" shadow="0">
      <root>
        <mxCell id="0" />
        <mxCell id="1" parent="0" />
        <mxCell id="qnW_kBwZKSD7qCRFaZgJ-1" value="" style="edgeStyle=orthogonalEdgeStyle;rounded=0;orthogonalLoop=1;jettySize=auto;html=1;" parent="1" source="qnW_kBwZKSD7qCRFaZgJ-2" target="qnW_kBwZKSD7qCRFaZgJ-11" edge="1">
          <mxGeometry relative="1" as="geometry" />
        </mxCell>
        <mxCell id="qnW_kBwZKSD7qCRFaZgJ-2" value="輸入查詢條件(車牌號碼/手機號碼&lt;span style=&quot;background-color: initial;&quot;&gt;)&lt;/span&gt;" style="rounded=1;whiteSpace=wrap;html=1;fontSize=12;glass=0;strokeWidth=1;shadow=0;" parent="1" vertex="1">
          <mxGeometry x="125" y="130" width="190" height="40" as="geometry" />
        </mxCell>
        <mxCell id="qnW_kBwZKSD7qCRFaZgJ-3" value="如果找到維修紀錄" style="rounded=0;html=1;jettySize=auto;orthogonalLoop=1;fontSize=11;endArrow=block;endFill=0;endSize=8;strokeWidth=1;shadow=0;labelBackgroundColor=none;edgeStyle=orthogonalEdgeStyle;" parent="1" source="qnW_kBwZKSD7qCRFaZgJ-5" target="qnW_kBwZKSD7qCRFaZgJ-6" edge="1">
          <mxGeometry y="50" relative="1" as="geometry">
            <mxPoint as="offset" />
          </mxGeometry>
        </mxCell>
        <mxCell id="qnW_kBwZKSD7qCRFaZgJ-4" value="如果未找到維修紀錄" style="edgeStyle=orthogonalEdgeStyle;rounded=0;html=1;jettySize=auto;orthogonalLoop=1;fontSize=11;endArrow=block;endFill=0;endSize=8;strokeWidth=1;shadow=0;labelBackgroundColor=none;" parent="1" source="qnW_kBwZKSD7qCRFaZgJ-5" target="qnW_kBwZKSD7qCRFaZgJ-8" edge="1">
          <mxGeometry y="10" relative="1" as="geometry">
            <mxPoint as="offset" />
          </mxGeometry>
        </mxCell>
        <mxCell id="qnW_kBwZKSD7qCRFaZgJ-5" value="顯示查詢結果" style="rhombus;whiteSpace=wrap;html=1;shadow=0;fontFamily=Helvetica;fontSize=12;align=center;strokeWidth=1;spacing=6;spacingTop=-4;" parent="1" vertex="1">
          <mxGeometry x="170" y="440" width="100" height="80" as="geometry" />
        </mxCell>
        <mxCell id="qnW_kBwZKSD7qCRFaZgJ-6" value="顯示記錄詳細信息" style="rounded=1;whiteSpace=wrap;html=1;fontSize=12;glass=0;strokeWidth=1;shadow=0;" parent="1" vertex="1">
          <mxGeometry x="160" y="580" width="120" height="40" as="geometry" />
        </mxCell>
        <mxCell id="qnW_kBwZKSD7qCRFaZgJ-7" style="edgeStyle=orthogonalEdgeStyle;rounded=0;orthogonalLoop=1;jettySize=auto;html=1;exitX=0.5;exitY=0;exitDx=0;exitDy=0;entryX=1;entryY=0.5;entryDx=0;entryDy=0;" parent="1" source="qnW_kBwZKSD7qCRFaZgJ-8" target="qnW_kBwZKSD7qCRFaZgJ-2" edge="1">
          <mxGeometry relative="1" as="geometry" />
        </mxCell>
        <mxCell id="qnW_kBwZKSD7qCRFaZgJ-8" value="提示「未找到相關紀錄」" style="rounded=1;whiteSpace=wrap;html=1;fontSize=12;glass=0;strokeWidth=1;shadow=0;" parent="1" vertex="1">
          <mxGeometry x="520" y="460" width="220" height="40" as="geometry" />
        </mxCell>
        <mxCell id="qnW_kBwZKSD7qCRFaZgJ-9" value="維修查詢流程圖" style="text;html=1;align=center;verticalAlign=middle;resizable=0;points=[];autosize=1;strokeColor=none;fillColor=none;" parent="1" vertex="1">
          <mxGeometry x="165" y="70" width="110" height="30" as="geometry" />
        </mxCell>
        <mxCell id="qnW_kBwZKSD7qCRFaZgJ-10" value="" style="edgeStyle=orthogonalEdgeStyle;rounded=0;orthogonalLoop=1;jettySize=auto;html=1;" parent="1" source="qnW_kBwZKSD7qCRFaZgJ-11" target="qnW_kBwZKSD7qCRFaZgJ-13" edge="1">
          <mxGeometry relative="1" as="geometry" />
        </mxCell>
        <mxCell id="qnW_kBwZKSD7qCRFaZgJ-11" value="發送查詢請求資料庫" style="rounded=1;whiteSpace=wrap;html=1;fontSize=12;glass=0;strokeWidth=1;shadow=0;" parent="1" vertex="1">
          <mxGeometry x="160" y="230" width="120" height="40" as="geometry" />
        </mxCell>
        <mxCell id="qnW_kBwZKSD7qCRFaZgJ-12" value="" style="edgeStyle=orthogonalEdgeStyle;rounded=0;orthogonalLoop=1;jettySize=auto;html=1;entryX=0.5;entryY=0;entryDx=0;entryDy=0;" parent="1" source="qnW_kBwZKSD7qCRFaZgJ-13" target="qnW_kBwZKSD7qCRFaZgJ-5" edge="1">
          <mxGeometry relative="1" as="geometry">
            <mxPoint x="220" y="430" as="targetPoint" />
          </mxGeometry>
        </mxCell>
        <mxCell id="qnW_kBwZKSD7qCRFaZgJ-13" value="從資料庫獲取查詢結果" style="rounded=1;whiteSpace=wrap;html=1;fontSize=12;glass=0;strokeWidth=1;shadow=0;" parent="1" vertex="1">
          <mxGeometry x="145" y="330" width="150" height="40" as="geometry" />
        </mxCell>
        <mxCell id="_YW6u7WtRvcYP5kLhQMW-1" value="1.2.5.1" style="text;html=1;align=center;verticalAlign=middle;resizable=0;points=[];autosize=1;strokeColor=none;fillColor=none;" vertex="1" parent="1">
          <mxGeometry x="190" y="40" width="60" height="30" as="geometry" />
        </mxCell>
        <mxCell id="_YW6u7WtRvcYP5kLhQMW-2" value="1.2.5.1.1" style="text;html=1;align=center;verticalAlign=middle;resizable=0;points=[];autosize=1;strokeColor=none;fillColor=none;" vertex="1" parent="1">
          <mxGeometry x="45" y="135" width="70" height="30" as="geometry" />
        </mxCell>
        <mxCell id="_YW6u7WtRvcYP5kLhQMW-3" value="1.2.5.1.2" style="text;html=1;align=center;verticalAlign=middle;resizable=0;points=[];autosize=1;strokeColor=none;fillColor=none;" vertex="1" parent="1">
          <mxGeometry x="70" y="235" width="70" height="30" as="geometry" />
        </mxCell>
        <mxCell id="_YW6u7WtRvcYP5kLhQMW-4" value="1.2.5.1.3" style="text;html=1;align=center;verticalAlign=middle;resizable=0;points=[];autosize=1;strokeColor=none;fillColor=none;" vertex="1" parent="1">
          <mxGeometry x="60" y="335" width="70" height="30" as="geometry" />
        </mxCell>
        <mxCell id="_YW6u7WtRvcYP5kLhQMW-5" value="1.2.5.1.4" style="text;html=1;align=center;verticalAlign=middle;resizable=0;points=[];autosize=1;strokeColor=none;fillColor=none;" vertex="1" parent="1">
          <mxGeometry x="60" y="465" width="70" height="30" as="geometry" />
        </mxCell>
        <mxCell id="_YW6u7WtRvcYP5kLhQMW-6" value="1.2.5.1.4.1" style="text;html=1;align=center;verticalAlign=middle;resizable=0;points=[];autosize=1;strokeColor=none;fillColor=none;" vertex="1" parent="1">
          <mxGeometry x="745" y="465" width="80" height="30" as="geometry" />
        </mxCell>
        <mxCell id="_YW6u7WtRvcYP5kLhQMW-7" value="1.2.5.1.5" style="text;html=1;align=center;verticalAlign=middle;resizable=0;points=[];autosize=1;strokeColor=none;fillColor=none;" vertex="1" parent="1">
          <mxGeometry x="70" y="585" width="70" height="30" as="geometry" />
        </mxCell>
      </root>
    </mxGraphModel>
  </diagram>
</mxfile>
